<?xml version="1.0" encoding="utf-8"?>
<!-- Generator: Adobe Illustrator 26.4.1, SVG Export Plug-In . SVG Version: 6.00 Build 0)  -->
<svg version="1.1" id="Calque_1" xmlns="http://www.w3.org/2000/svg" xmlns:xlink="http://www.w3.org/1999/xlink" x="0px" y="0px"
	 viewBox="0 0 500 500" style="enable-background:new 0 0 500 500;" xml:space="preserve">
<style type="text/css">
	.st0{fill:#EE3696;}
	.st1{fill:#00B2F2;}
	.st2{fill:#88C64D;}
	.st3{fill:#EF3D2F;}
	.st4{fill:#5E409A;}
	.st5{fill:#FFF33D;}
</style>
<path d="M250,18C121.87,18,18,121.87,18,250s103.87,232,232,232s232-103.87,232-232S378.13,18,250,18z M392.99,252.63
	c-0.19,14.88-1.92,29.39-5.05,43.38c-2.05,9.18-4.71,18.14-7.92,26.83c-2.07,5.61-4.38,11.1-6.91,16.47
	c-7.34,15.61-16.56,30.17-27.36,43.38h-42.91c10.54-13.26,19.5-27.81,26.62-43.38c6.26-13.71,11.09-28.2,14.3-43.3
	c2.97-13.99,4.55-28.5,4.59-43.38v-0.49c0-14.67-1.5-28.99-4.37-42.81c-3.13-15.12-7.89-29.64-14.07-43.38h-43.42
	c2.56,5.91,4.86,11.95,6.86,18.12c2.68,8.21,4.88,16.64,6.53,25.26c2.5,12.94,3.81,26.31,3.81,39.99c0,1.11-0.01,2.21-0.03,3.3
	c-0.23,14.89-2.01,29.4-5.18,43.38c-1.43,6.3-3.14,12.49-5.13,18.56c-2.77,8.49-6.07,16.75-9.86,24.73
	c-7.42,15.62-16.71,30.17-27.58,43.38c-2.11,2.57-4.28,5.08-6.5,7.54c-2.19-2.46-4.33-4.98-6.4-7.54h-88.18
	c-10.88-13.21-20.17-27.76-27.6-43.38c-2.66-5.6-5.07-11.32-7.24-17.17c-3.14-8.46-5.74-17.19-7.77-26.12
	c-3.18-13.98-4.96-28.49-5.19-43.38c-0.02-1.12-0.03-2.24-0.03-3.36c0-13.66,1.3-27,3.79-39.93c2.18-11.33,5.27-22.33,9.2-32.93
	c1.3-3.53,2.7-7.01,4.19-10.45c6.69-15.49,15.21-30.01,25.27-43.3h46.28c-10.3,13.26-19.05,27.78-25.97,43.3
	c-6.13,13.74-10.82,28.26-13.9,43.38c-2.76,13.59-4.21,27.64-4.21,42.05c0,0.42,0,0.83,0.01,1.25c0.08,14.88,1.72,29.39,4.74,43.38
	c3.27,15.1,8.16,29.6,14.49,43.3h44.99c-3.52-7.56-6.61-15.37-9.22-23.38c-2.13-6.5-3.95-13.15-5.43-19.91
	c-3.08-13.99-4.76-28.5-4.9-43.38c-0.01-0.65-0.01-1.3-0.01-1.95c0-14.15,1.4-27.98,4.07-41.34c1.62-8.15,3.72-16.12,6.26-23.9
	c2.16-6.65,4.66-13.14,7.46-19.48c6.84-15.5,15.51-30.03,25.73-43.3c3.42-4.44,7-8.74,10.76-12.88c3.69,4.15,7.22,8.45,10.58,12.88
	h88.83c10.14,13.28,18.73,27.8,25.5,43.3c1.61,3.66,3.1,7.39,4.5,11.16c3.84,10.38,6.88,21.15,9.06,32.22
	c2.58,13.15,3.93,26.74,3.93,40.64C393,250.86,392.99,251.75,392.99,252.63z"/>
<g>
	<circle class="st0" cx="82" cy="165" r="10"/>
</g>
<g>
	<circle class="st1" cx="62" cy="250" r="10"/>
</g>
<g>
	<circle class="st2" cx="82" cy="335" r="10"/>
</g>
<g>
	<circle class="st3" cx="419" cy="165" r="10"/>
</g>
<g>
	<circle class="st4" cx="439" cy="250" r="10"/>
</g>
<g>
	<circle class="st5" cx="419" cy="335" r="10"/>
</g>
</svg>
